<?xml version="1.0" standalone="no"?>
<!DOCTYPE svg PUBLIC "-//W3C//DTD SVG 20010904//EN"
 "http://www.w3.org/TR/2001/REC-SVG-20010904/DTD/svg10.dtd">
<svg version="1.0" xmlns="http://www.w3.org/2000/svg"
 width="42.000000pt" height="42.000000pt" viewBox="0 0 42.000000 42.000000"
 preserveAspectRatio="xMidYMid meet">

<g transform="translate(0.000000,42.000000) scale(0.100000,-0.100000)"
fill="#000000" stroke="none">
<path d="M138 389 c-60 -31 -94 -79 -107 -150 -11 -65 -10 -69 31 -120 13 -16
44 -34 105 -63 17 -9 34 -20 38 -26 9 -15 45 -12 45 4 0 8 12 19 28 25 43 18
71 36 104 67 29 28 30 32 25 91 -5 70 -32 125 -49 102 -8 -11 -8 -10 -4 4 19
60 -136 107 -216 66z m67 1 c3 -5 -1 -10 -9 -10 -9 0 -16 5 -16 10 0 6 4 10 9
10 6 0 13 -4 16 -10z m70 0 c3 -5 1 -10 -4 -10 -6 0 -11 5 -11 10 0 6 2 10 4
10 3 0 8 -4 11 -10z m-121 -29 c4 -5 -3 -7 -14 -4 -23 6 -26 13 -6 13 8 0 17
-4 20 -9z m54 -16 c-3 -3 -9 2 -12 12 -6 14 -5 15 5 6 7 -7 10 -15 7 -18z
m118 7 c1 -7 0 -8 -3 -2 -7 14 -33 13 -33 -2 0 -6 -3 -9 -6 -5 -3 3 -3 11 1
17 9 14 38 9 41 -8z m-1 -30 c-3 -3 -11 0 -18 7 -9 10 -8 11 6 5 10 -3 15 -9
12 -12z m-115 -14 c0 -6 -6 -5 -15 2 -8 7 -15 14 -15 16 0 2 7 1 15 -2 8 -4
15 -11 15 -16z m60 14 c0 -5 -7 -9 -15 -9 -8 0 -12 4 -9 9 3 4 9 8 15 8 5 0 9
-4 9 -8z m-178 -44 c-7 -7 -12 -8 -12 -2 0 14 12 26 19 19 2 -3 -1 -11 -7 -17z
m52 6 c3 -8 2 -12 -4 -9 -6 3 -10 10 -10 16 0 14 7 11 14 -7z m241 6 c3 -5 1
-10 -4 -10 -6 0 -11 5 -11 10 0 6 2 10 4 10 3 0 8 -4 11 -10z m-26 -22 c0 -16
-2 -18 -6 -8 -3 8 -11 18 -17 22 -7 5 -4 8 7 8 11 0 17 -7 16 -22z m41 -33 c0
-8 -4 -15 -10 -15 -5 0 -10 7 -10 15 0 8 5 15 10 15 6 0 10 -7 10 -15z m-230
-7 c0 6 4 12 10 12 5 0 8 -12 6 -27 -2 -16 -1 -20 1 -10 2 9 9 15 14 12 5 -4
9 -1 9 4 0 6 8 11 18 11 14 0 15 -2 2 -10 -10 -6 -11 -10 -2 -10 6 0 11 -6 10
-12 -4 -18 -56 -28 -85 -17 -14 5 -23 5 -23 -1 0 -6 -4 -10 -10 -10 -13 0 -50
37 -50 50 0 17 58 11 69 -7 9 -16 10 -15 11 7 0 20 2 22 10 10 6 -10 10 -11
10 -2z m118 -21 c4 -35 21 -35 19 -1 -1 16 4 29 13 32 13 4 13 3 2 -10 -8 -10
-9 -19 -4 -22 6 -3 12 1 16 9 3 8 13 15 23 14 12 0 14 -2 4 -6 -11 -5 -11 -7
0 -14 11 -7 11 -9 1 -9 -7 0 -11 -4 -8 -9 8 -12 -56 -23 -67 -12 -5 5 -16 7
-25 3 -12 -4 -14 -1 -9 12 4 10 7 24 7 33 0 25 25 8 28 -20z m-225 -18 c-5
-16 -8 -18 -14 -7 -5 7 -9 21 -9 32 0 15 3 16 14 7 8 -7 12 -21 9 -32z m337
-9 c0 -5 -5 -10 -11 -10 -5 0 -7 5 -4 10 3 6 8 10 11 10 2 0 4 -4 4 -10z m-30
-22 c0 -7 -5 -20 -10 -28 -8 -12 -10 -9 -10 13 0 15 5 27 10 27 6 0 10 -6 10
-12z"/>
<path d="M111 204 c0 -11 3 -14 6 -6 3 7 2 16 -1 19 -3 4 -6 -2 -5 -13z"/>
</g>
</svg>
